<?xml version="1.0" encoding="UTF-8" standalone="no"?>
<!-- Created with Inkscape (http://www.inkscape.org/) -->

<svg
   width="187.70247mm"
   height="187.67776mm"
   viewBox="0 0 187.70247 187.67776"
   version="1.1"
   id="svg5"
   sodipodi:docname="ico_engranajes.svg"
   inkscape:version="1.1 (ce6663b3b7, 2021-05-25)"
   xmlns:inkscape="http://www.inkscape.org/namespaces/inkscape"
   xmlns:sodipodi="http://sodipodi.sourceforge.net/DTD/sodipodi-0.dtd"
   xmlns="http://www.w3.org/2000/svg"
   xmlns:svg="http://www.w3.org/2000/svg">
  <sodipodi:namedview
     id="namedview7"
     pagecolor="#ffffff"
     bordercolor="#666666"
     borderopacity="1.0"
     inkscape:pageshadow="2"
     inkscape:pageopacity="0.0"
     inkscape:pagecheckerboard="0"
     inkscape:document-units="mm"
     showgrid="false"
     inkscape:zoom="0.066457422"
     inkscape:cx="1361.7742"
     inkscape:cy="699.69612"
     inkscape:window-width="960"
     inkscape:window-height="1016"
     inkscape:window-x="0"
     inkscape:window-y="27"
     inkscape:window-maximized="0"
     inkscape:current-layer="layer1" />
  <defs
     id="defs2">
    <clipPath
       clipPathUnits="userSpaceOnUse"
       id="clipPath186">
      <path
         d="M 0,2400 H 2400 V 0 H 0 Z"
         id="path184" />
    </clipPath>
    <clipPath
       clipPathUnits="userSpaceOnUse"
       id="clipPath206">
      <path
         d="m 510.5,1964.5 -106,19 -22,-80 -145,-34 135.217,-135.217 v -64.635 c 0,0 80.116,-19.148 100.949,-16.648 v 0 c 13.629,1.636 84.032,4.489 150.632,56.903 v 0 c 18.099,14.243 71.745,60.277 93.202,141.597 v 0 c 16.076,60.925 6.254,111.986 0,136 v 0 c -29.833,32.343 -59.667,64.686 -89.5,97.03 v 0 z"
         id="path204" />
    </clipPath>
    <linearGradient
       x1="0"
       y1="0"
       x2="1"
       y2="0"
       gradientUnits="userSpaceOnUse"
       gradientTransform="matrix(202.47221,-289.16028,-289.16028,-202.47221,424.67941,2000.5645)"
       spreadMethod="pad"
       id="linearGradient222">
      <stop
         style="stop-opacity:0.25999847;stop-color:#ffffff"
         offset="0"
         id="stop216" />
      <stop
         style="stop-opacity:0.25999847;stop-color:#ffffff"
         offset="0.54196935"
         id="stop218" />
      <stop
         style="stop-opacity:0;stop-color:#ffffff"
         offset="1"
         id="stop220" />
    </linearGradient>
    <mask
       maskUnits="userSpaceOnUse"
       x="0"
       y="0"
       width="1"
       height="1"
       id="mask224">
      <g
         id="g234">
        <g
           id="g232">
          <g
             id="g230">
            <g
               id="g228">
              <path
                 d="M -32768,32767 H 32767 V -32768 H -32768 Z"
                 style="fill:url(#linearGradient222);stroke:none"
                 id="path226" />
            </g>
          </g>
        </g>
      </g>
    </mask>
    <linearGradient
       x1="0"
       y1="0"
       x2="1"
       y2="0"
       gradientUnits="userSpaceOnUse"
       gradientTransform="matrix(202.47221,-289.16028,-289.16028,-202.47221,1158.6544,813.40863)"
       spreadMethod="pad"
       id="linearGradient246">
      <stop
         style="stop-opacity:1;stop-color:#1d1d1b"
         offset="0"
         id="stop240" />
      <stop
         style="stop-opacity:1;stop-color:#1d1d1b"
         offset="0.54196935"
         id="stop242" />
      <stop
         style="stop-opacity:1;stop-color:#5acc11"
         offset="1"
         id="stop244" />
    </linearGradient>
    <clipPath
       clipPathUnits="userSpaceOnUse"
       id="clipPath256">
      <path
         d="M 0,2400 H 2400 V 0 H 0 Z"
         id="path254" />
    </clipPath>
    <clipPath
       clipPathUnits="userSpaceOnUse"
       id="clipPath268">
      <path
         d="m 1332,1814 c -0.01,-0.945 -0.16,-3.539 -2,-6 v 0 c -2.523,-3.375 -6.29,-3.912 -7,-4 v 0 c -84.333,1 -168.666,2 -253,3 v 0 c 51.668,-50.163 103.337,-100.326 155.006,-150.489 v 0 c 24.077,3.813 75.644,15.306 125.994,55.489 v 0 c 46.914,37.442 69.424,81.159 79.07,103.4 v 0 c -45.69,47.866 -91.379,95.733 -137.07,143.6 v 0 c 13,-48.333 26,-96.667 39,-145"
         id="path266" />
    </clipPath>
    <linearGradient
       x1="0"
       y1="0"
       x2="1"
       y2="0"
       gradientUnits="userSpaceOnUse"
       gradientTransform="matrix(125.63764,-209.09615,-209.09615,-125.63764,1196.1823,1900.826)"
       spreadMethod="pad"
       id="linearGradient284">
      <stop
         style="stop-opacity:0.4;stop-color:#ffffff"
         offset="0"
         id="stop278" />
      <stop
         style="stop-opacity:0.4;stop-color:#ffffff"
         offset="0.25512104"
         id="stop280" />
      <stop
         style="stop-opacity:0;stop-color:#ffffff"
         offset="1"
         id="stop282" />
    </linearGradient>
    <mask
       maskUnits="userSpaceOnUse"
       x="0"
       y="0"
       width="1"
       height="1"
       id="mask286">
      <g
         id="g296">
        <g
           id="g294">
          <g
             id="g292">
            <g
               id="g290">
              <path
                 d="M -32768,32767 H 32767 V -32768 H -32768 Z"
                 style="fill:url(#linearGradient284);stroke:none"
                 id="path288" />
            </g>
          </g>
        </g>
      </g>
    </mask>
    <linearGradient
       x1="0"
       y1="0"
       x2="1"
       y2="0"
       gradientUnits="userSpaceOnUse"
       gradientTransform="matrix(125.63764,-209.09615,-209.09615,-125.63764,1847.1987,660.39191)"
       spreadMethod="pad"
       id="linearGradient308">
      <stop
         style="stop-opacity:1;stop-color:#1d1d1b"
         offset="0"
         id="stop302" />
      <stop
         style="stop-opacity:1;stop-color:#1d1d1b"
         offset="0.25512104"
         id="stop304" />
      <stop
         style="stop-opacity:1;stop-color:#5acc11"
         offset="1"
         id="stop306" />
    </linearGradient>
    <clipPath
       clipPathUnits="userSpaceOnUse"
       id="clipPath318">
      <path
         d="M 0,2400 H 2400 V 0 H 0 Z"
         id="path316" />
    </clipPath>
    <clipPath
       clipPathUnits="userSpaceOnUse"
       id="clipPath330">
      <path
         d="m 507.5,1258.5 c 10.526,-61.547 -3.755,-136.514 -49,-178 v 0 c -9.674,-8.869 -28.446,-26.083 -55.499,-28.98 v 0 c -16.982,-1.819 -25.726,3.236 -49.501,5.98 v 0 c -16.085,1.857 -37.706,2.502 -64,-2 v 0 c 43.482,-43.482 86.964,-86.964 130.446,-130.447 v 0 c 20.946,0.872 116.725,7.124 189.554,85.447 v 0 c 48.06,51.684 62.278,109.108 67,135 v 0 c -76.667,77.667 -153.334,155.334 -230,233 v 0 c 18.488,-19.754 50.816,-60.455 61,-120"
         id="path328" />
    </clipPath>
    <linearGradient
       x1="0"
       y1="0"
       x2="1"
       y2="0"
       gradientUnits="userSpaceOnUse"
       gradientTransform="matrix(265.62119,-265.62119,-265.62119,-265.62119,326.5,1258.5)"
       spreadMethod="pad"
       id="linearGradient346">
      <stop
         style="stop-opacity:0.4;stop-color:#ffffff"
         offset="0"
         id="stop340" />
      <stop
         style="stop-opacity:0.4;stop-color:#ffffff"
         offset="0.38291413"
         id="stop342" />
      <stop
         style="stop-opacity:0;stop-color:#ffffff"
         offset="1"
         id="stop344" />
    </linearGradient>
    <mask
       maskUnits="userSpaceOnUse"
       x="0"
       y="0"
       width="1"
       height="1"
       id="mask348">
      <g
         id="g358">
        <g
           id="g356">
          <g
             id="g354">
            <g
               id="g352">
              <path
                 d="M -32768,32767 H 32767 V -32768 H -32768 Z"
                 style="fill:url(#linearGradient346);stroke:none"
                 id="path350" />
            </g>
          </g>
        </g>
      </g>
    </mask>
    <linearGradient
       x1="0"
       y1="0"
       x2="1"
       y2="0"
       gradientUnits="userSpaceOnUse"
       gradientTransform="matrix(265.62119,-265.62119,-265.62119,-265.62119,1060.475,71.34413)"
       spreadMethod="pad"
       id="linearGradient370">
      <stop
         style="stop-opacity:1;stop-color:#1d1d1b"
         offset="0"
         id="stop364" />
      <stop
         style="stop-opacity:1;stop-color:#1d1d1b"
         offset="0.38291413"
         id="stop366" />
      <stop
         style="stop-opacity:1;stop-color:#5acc11"
         offset="1"
         id="stop368" />
    </linearGradient>
    <clipPath
       clipPathUnits="userSpaceOnUse"
       id="clipPath380">
      <path
         d="M 0,2400 H 2400 V 0 H 0 Z"
         id="path378" />
    </clipPath>
    <clipPath
       clipPathUnits="userSpaceOnUse"
       id="clipPath392">
      <path
         d="m 1830.974,1981.424 84.225,-84.225 L 1989,1976 1884.5,2080.5 Z"
         id="path390" />
    </clipPath>
    <linearGradient
       x1="0"
       y1="0"
       x2="1"
       y2="0"
       gradientUnits="userSpaceOnUse"
       gradientTransform="matrix(106.99999,-106.99999,-106.99999,-106.99999,1846.3495,2042.3495)"
       spreadMethod="pad"
       id="linearGradient408">
      <stop
         style="stop-opacity:0.25999847;stop-color:#ffffff"
         offset="0"
         id="stop402" />
      <stop
         style="stop-opacity:0.25999847;stop-color:#ffffff"
         offset="0.54196935"
         id="stop404" />
      <stop
         style="stop-opacity:0;stop-color:#ffffff"
         offset="1"
         id="stop406" />
    </linearGradient>
    <mask
       maskUnits="userSpaceOnUse"
       x="0"
       y="0"
       width="1"
       height="1"
       id="mask410">
      <g
         id="g420">
        <g
           id="g418">
          <g
             id="g416">
            <g
               id="g414">
              <path
                 d="M -32768,32767 H 32767 V -32768 H -32768 Z"
                 style="fill:url(#linearGradient408);stroke:none"
                 id="path412" />
            </g>
          </g>
        </g>
      </g>
    </mask>
    <linearGradient
       x1="0"
       y1="0"
       x2="1"
       y2="0"
       gradientUnits="userSpaceOnUse"
       gradientTransform="matrix(106.99999,-106.99999,-106.99999,-106.99999,2580.3245,855.19363)"
       spreadMethod="pad"
       id="linearGradient432">
      <stop
         style="stop-opacity:1;stop-color:#1d1d1b"
         offset="0"
         id="stop426" />
      <stop
         style="stop-opacity:1;stop-color:#1d1d1b"
         offset="0.54196935"
         id="stop428" />
      <stop
         style="stop-opacity:1;stop-color:#5acc11"
         offset="1"
         id="stop430" />
    </linearGradient>
    <clipPath
       clipPathUnits="userSpaceOnUse"
       id="clipPath442">
      <path
         d="m 2055,1958 c 2.333,-4.667 4.667,-9.333 7,-14 v 0 c 6.667,1.334 13.333,2.667 20,4 v 0 l 6,-29 -23,-8 1,-12 18,-10 -11,-25 -21,7 -12,-12 12,-19 -23,-15 -14,21 -14,-1 -2,-25 -29,2 v 22 l -18,11 -12,-18 -23,19 -31,-12 7.542,-15.792 6.458,-0.208 -1,-14 h -15 l -3,-12 8,-8 -3,-11 -13,8 -20,-8 7,-13 -14,-3 -3,17 h -20 l -1,-13 -9,4 v 11 l -6,10 -20,-10 132.5,-132.5 c 20.41,0.209 125.827,3.336 203.5,87.5 v 0 c 45.657,49.471 60.602,104.049 66,131 v 0 c -39,34.333 -78,68.666 -117,103 v 0 c -5.667,-5.667 -11.333,-11.333 -17,-17"
         id="path440" />
    </clipPath>
    <linearGradient
       x1="0"
       y1="0"
       x2="1"
       y2="0"
       gradientUnits="userSpaceOnUse"
       gradientTransform="matrix(190.64781,-190.64781,-190.64781,-190.64781,1909,1908)"
       spreadMethod="pad"
       id="linearGradient458">
      <stop
         style="stop-opacity:0.25999847;stop-color:#ffffff"
         offset="0"
         id="stop452" />
      <stop
         style="stop-opacity:0.25999847;stop-color:#ffffff"
         offset="0.54196935"
         id="stop454" />
      <stop
         style="stop-opacity:0;stop-color:#ffffff"
         offset="1"
         id="stop456" />
    </linearGradient>
    <mask
       maskUnits="userSpaceOnUse"
       x="0"
       y="0"
       width="1"
       height="1"
       id="mask460">
      <g
         id="g470">
        <g
           id="g468">
          <g
             id="g466">
            <g
               id="g464">
              <path
                 d="M -32768,32767 H 32767 V -32768 H -32768 Z"
                 style="fill:url(#linearGradient458);stroke:none"
                 id="path462" />
            </g>
          </g>
        </g>
      </g>
    </mask>
    <linearGradient
       x1="0"
       y1="0"
       x2="1"
       y2="0"
       gradientUnits="userSpaceOnUse"
       gradientTransform="matrix(190.64781,-190.64781,-190.64781,-190.64781,2642.975,720.84413)"
       spreadMethod="pad"
       id="linearGradient482">
      <stop
         style="stop-opacity:1;stop-color:#1d1d1b"
         offset="0"
         id="stop476" />
      <stop
         style="stop-opacity:1;stop-color:#1d1d1b"
         offset="0.54196935"
         id="stop478" />
      <stop
         style="stop-opacity:1;stop-color:#5acc11"
         offset="1"
         id="stop480" />
    </linearGradient>
    <clipPath
       clipPathUnits="userSpaceOnUse"
       id="clipPath492">
      <path
         d="m 1209.644,1305.355 46.856,-46.855 -26.458,-16.458 -45.042,45.042 -70,-73.084 88,-88 -85,-49 -174.45,24.235 C 1004.223,984.777 1133.435,925.474 1251,955 v 0 c 96.388,24.207 172.021,104.877 195.106,206.895 v 0 C 1377.07,1230.929 1308.035,1299.964 1239,1369 v 0 z"
         id="path490" />
    </clipPath>
    <linearGradient
       x1="0"
       y1="0"
       x2="1"
       y2="0"
       gradientUnits="userSpaceOnUse"
       gradientTransform="matrix(347.92252,-217.40613,-217.40613,-347.92252,1034.536,1246.8417)"
       spreadMethod="pad"
       id="linearGradient508">
      <stop
         style="stop-opacity:0.25999847;stop-color:#ffffff"
         offset="0"
         id="stop502" />
      <stop
         style="stop-opacity:0.25999847;stop-color:#ffffff"
         offset="0.54196935"
         id="stop504" />
      <stop
         style="stop-opacity:0;stop-color:#ffffff"
         offset="1"
         id="stop506" />
    </linearGradient>
    <mask
       maskUnits="userSpaceOnUse"
       x="0"
       y="0"
       width="1"
       height="1"
       id="mask510">
      <g
         id="g520">
        <g
           id="g518">
          <g
             id="g516">
            <g
               id="g514">
              <path
                 d="M -32768,32767 H 32767 V -32768 H -32768 Z"
                 style="fill:url(#linearGradient508);stroke:none"
                 id="path512" />
            </g>
          </g>
        </g>
      </g>
    </mask>
    <linearGradient
       x1="0"
       y1="0"
       x2="1"
       y2="0"
       gradientUnits="userSpaceOnUse"
       gradientTransform="matrix(347.92252,-217.40613,-217.40613,-347.92252,1768.511,59.68583)"
       spreadMethod="pad"
       id="linearGradient532">
      <stop
         style="stop-opacity:1;stop-color:#1d1d1b"
         offset="0"
         id="stop526" />
      <stop
         style="stop-opacity:1;stop-color:#1d1d1b"
         offset="0.54196935"
         id="stop528" />
      <stop
         style="stop-opacity:1;stop-color:#5acc11"
         offset="1"
         id="stop530" />
    </linearGradient>
    <clipPath
       clipPathUnits="userSpaceOnUse"
       id="clipPath542">
      <path
         d="m 1949,1324 c -9.667,10.334 -19.333,20.667 -29,31 v 0 c -8.727,-2.655 -32.461,-11.152 -50,-35 v 0 c -25.479,-34.643 -17.387,-73.806 -16,-80 v 0 c 10.333,-11 20.667,-22 31,-33 v 0 c -7.333,-5.667 -14.667,-11.333 -22,-17 v 0 c 21.333,-21.667 42.667,-43.333 64,-65 v 0 c -28.667,-16.667 -57.333,-33.333 -86,-50 v 0 l -174.45,24.234 C 1723.629,983.029 1853.347,922.619 1974,953 v 0 c 110.104,27.725 191.98,125.851 201,243 v 0 c -67.333,70 -134.667,140 -202,210 v 0 c -8,-27.333 -16,-54.666 -24,-82"
         id="path540" />
    </clipPath>
    <linearGradient
       x1="0"
       y1="0"
       x2="1"
       y2="0"
       gradientUnits="userSpaceOnUse"
       gradientTransform="matrix(254.5385,-272.95911,-272.95911,-254.5385,1805.7281,1262.262)"
       spreadMethod="pad"
       id="linearGradient558">
      <stop
         style="stop-opacity:0.25999847;stop-color:#ffffff"
         offset="0"
         id="stop552" />
      <stop
         style="stop-opacity:0.25999847;stop-color:#ffffff"
         offset="0.54196935"
         id="stop554" />
      <stop
         style="stop-opacity:0;stop-color:#ffffff"
         offset="1"
         id="stop556" />
    </linearGradient>
    <mask
       maskUnits="userSpaceOnUse"
       x="0"
       y="0"
       width="1"
       height="1"
       id="mask560">
      <g
         id="g570">
        <g
           id="g568">
          <g
             id="g566">
            <g
               id="g564">
              <path
                 d="M -32768,32767 H 32767 V -32768 H -32768 Z"
                 style="fill:url(#linearGradient558);stroke:none"
                 id="path562" />
            </g>
          </g>
        </g>
      </g>
    </mask>
    <linearGradient
       x1="0"
       y1="0"
       x2="1"
       y2="0"
       gradientUnits="userSpaceOnUse"
       gradientTransform="matrix(254.5385,-272.95911,-272.95911,-254.5385,2539.7031,75.10613)"
       spreadMethod="pad"
       id="linearGradient582">
      <stop
         style="stop-opacity:1;stop-color:#1d1d1b"
         offset="0"
         id="stop576" />
      <stop
         style="stop-opacity:1;stop-color:#1d1d1b"
         offset="0.54196935"
         id="stop578" />
      <stop
         style="stop-opacity:1;stop-color:#5acc11"
         offset="1"
         id="stop580" />
    </linearGradient>
    <clipPath
       clipPathUnits="userSpaceOnUse"
       id="clipPath592">
      <path
         d="M 0,2400 H 2400 V 0 H 0 Z"
         id="path590" />
    </clipPath>
    <clipPath
       clipPathUnits="userSpaceOnUse"
       id="clipPath636">
      <path
         d="m 2033,466 c 10,-6.667 20,-13.333 30,-20 v 0 c -24.667,-24.333 -49.333,-48.667 -74,-73 v 0 l -6,9 c -14.828,-6.622 -36.417,-13.88 -63,-15 v 0 c -63.511,-2.676 -109.112,31.636 -123,43 v 0 l 165.264,-165.264 c 23.668,5.061 86.958,21.874 140.736,79.264 v 0 c 46.995,50.152 61.915,104.818 67,129 v 0 c -29.333,28.667 -58.667,57.333 -88,86 v 0 c -16.333,-24.333 -32.667,-48.667 -49,-73"
         id="path634" />
    </clipPath>
    <linearGradient
       x1="0"
       y1="0"
       x2="1"
       y2="0"
       gradientUnits="userSpaceOnUse"
       gradientTransform="matrix(196.09967,-196.09967,-196.09967,-196.09967,1901,514)"
       spreadMethod="pad"
       id="linearGradient652">
      <stop
         style="stop-opacity:0.17999542;stop-color:#ffffff"
         offset="0"
         id="stop646" />
      <stop
         style="stop-opacity:0.17999542;stop-color:#ffffff"
         offset="0.79908746"
         id="stop648" />
      <stop
         style="stop-opacity:0;stop-color:#ffffff"
         offset="1"
         id="stop650" />
    </linearGradient>
    <mask
       maskUnits="userSpaceOnUse"
       x="0"
       y="0"
       width="1"
       height="1"
       id="mask654">
      <g
         id="g664">
        <g
           id="g662">
          <g
             id="g660">
            <g
               id="g658">
              <path
                 d="M -32768,32767 H 32767 V -32768 H -32768 Z"
                 style="fill:url(#linearGradient652);stroke:none"
                 id="path656" />
            </g>
          </g>
        </g>
      </g>
    </mask>
    <linearGradient
       x1="0"
       y1="0"
       x2="1"
       y2="0"
       gradientUnits="userSpaceOnUse"
       gradientTransform="matrix(196.09967,-196.09967,-196.09967,-196.09967,2634.975,-673.15587)"
       spreadMethod="pad"
       id="linearGradient676">
      <stop
         style="stop-opacity:1;stop-color:#1d1d1b"
         offset="0"
         id="stop670" />
      <stop
         style="stop-opacity:1;stop-color:#1d1d1b"
         offset="0.79908746"
         id="stop672" />
      <stop
         style="stop-opacity:1;stop-color:#5acc11"
         offset="1"
         id="stop674" />
    </linearGradient>
    <clipPath
       clipPathUnits="userSpaceOnUse"
       id="clipPath686">
      <path
         d="M 0,2400 H 2400 V 0 H 0 Z"
         id="path684" />
    </clipPath>
    <clipPath
       clipPathUnits="userSpaceOnUse"
       id="clipPath850">
      <path
         d="m 1917.133,1263.197 c -2.801,-13.009 -9.191,-21.806 -12.633,-25.94 v 0 L 1944.046,1192 1977,1232.842 c -20.323,20.052 -40.644,40.105 -60.966,60.158 v 0 c 1.522,-5.192 4.015,-16.257 1.099,-29.803"
         id="path848" />
    </clipPath>
    <linearGradient
       x1="0"
       y1="0"
       x2="1"
       y2="0"
       gradientUnits="userSpaceOnUse"
       gradientTransform="matrix(70.360237,-45.692474,-45.692474,-70.360237,1897.1216,1263.8773)"
       spreadMethod="pad"
       id="linearGradient866">
      <stop
         style="stop-opacity:0.14000153;stop-color:#ffffff"
         offset="0"
         id="stop860" />
      <stop
         style="stop-opacity:0.14000153;stop-color:#ffffff"
         offset="0.54196935"
         id="stop862" />
      <stop
         style="stop-opacity:0;stop-color:#ffffff"
         offset="1"
         id="stop864" />
    </linearGradient>
    <mask
       maskUnits="userSpaceOnUse"
       x="0"
       y="0"
       width="1"
       height="1"
       id="mask868">
      <g
         id="g878">
        <g
           id="g876">
          <g
             id="g874">
            <g
               id="g872">
              <path
                 d="M -32768,32767 H 32767 V -32768 H -32768 Z"
                 style="fill:url(#linearGradient866);stroke:none"
                 id="path870" />
            </g>
          </g>
        </g>
      </g>
    </mask>
    <linearGradient
       x1="0"
       y1="0"
       x2="1"
       y2="0"
       gradientUnits="userSpaceOnUse"
       gradientTransform="matrix(70.360237,-45.692474,-45.692474,-70.360237,2631.0966,76.72143)"
       spreadMethod="pad"
       id="linearGradient890">
      <stop
         style="stop-opacity:1;stop-color:#1d1d1b"
         offset="0"
         id="stop884" />
      <stop
         style="stop-opacity:1;stop-color:#1d1d1b"
         offset="0.54196935"
         id="stop886" />
      <stop
         style="stop-opacity:1;stop-color:#5acc11"
         offset="1"
         id="stop888" />
    </linearGradient>
    <clipPath
       clipPathUnits="userSpaceOnUse"
       id="clipPath900">
      <path
         d="m 1994,1231 c -12.154,-19.593 -10.682,-39.054 -10,-45 v 0 l 24,-21 c 19.333,19.333 38.667,38.666 58,58 v 0 c -13.655,11.667 -27.311,23.333 -40.966,35 v 0 c -5.791,-2.582 -20.542,-10.086 -31.034,-27"
         id="path898" />
    </clipPath>
    <linearGradient
       x1="0"
       y1="0"
       x2="1"
       y2="0"
       gradientUnits="userSpaceOnUse"
       gradientTransform="matrix(54.309147,-35.268772,-35.268772,-54.309147,1991.7598,1227.5775)"
       spreadMethod="pad"
       id="linearGradient916">
      <stop
         style="stop-opacity:0.08999771;stop-color:#ffffff"
         offset="0"
         id="stop910" />
      <stop
         style="stop-opacity:0.08999771;stop-color:#ffffff"
         offset="0.54196935"
         id="stop912" />
      <stop
         style="stop-opacity:0;stop-color:#ffffff"
         offset="1"
         id="stop914" />
    </linearGradient>
    <mask
       maskUnits="userSpaceOnUse"
       x="0"
       y="0"
       width="1"
       height="1"
       id="mask918">
      <g
         id="g928">
        <g
           id="g926">
          <g
             id="g924">
            <g
               id="g922">
              <path
                 d="M -32768,32767 H 32767 V -32768 H -32768 Z"
                 style="fill:url(#linearGradient916);stroke:none"
                 id="path920" />
            </g>
          </g>
        </g>
      </g>
    </mask>
    <linearGradient
       x1="0"
       y1="0"
       x2="1"
       y2="0"
       gradientUnits="userSpaceOnUse"
       gradientTransform="matrix(54.309147,-35.268772,-35.268772,-54.309147,2725.7348,40.42163)"
       spreadMethod="pad"
       id="linearGradient940">
      <stop
         style="stop-opacity:1;stop-color:#1d1d1b"
         offset="0"
         id="stop934" />
      <stop
         style="stop-opacity:1;stop-color:#1d1d1b"
         offset="0.54196935"
         id="stop936" />
      <stop
         style="stop-opacity:1;stop-color:#5acc11"
         offset="1"
         id="stop938" />
    </linearGradient>
    <clipPath
       clipPathUnits="userSpaceOnUse"
       id="clipPath950">
      <path
         d="m 1932,1117 c -58.861,-49.153 -135.693,-35.758 -150,-33 v 0 c -38.333,5 -76.667,10 -115,15 v 0 c 43.621,-88.582 129.982,-147.375 226,-153 v 0 c 125.424,-7.348 205.836,79.626 216,91 v 0 c -46.989,41.333 -93.977,82.667 -140.965,124 v 0 c -7.573,-13.697 -18.95,-29.732 -36.035,-44"
         id="path948" />
    </clipPath>
    <linearGradient
       x1="0"
       y1="0"
       x2="1"
       y2="0"
       gradientUnits="userSpaceOnUse"
       gradientTransform="matrix(77.268517,-224.40405,-224.40405,-77.268517,1855.0325,1163.7448)"
       spreadMethod="pad"
       id="linearGradient968">
      <stop
         style="stop-opacity:0.06999313;stop-color:#ffffff"
         offset="0"
         id="stop960" />
      <stop
         style="stop-opacity:0.06999313;stop-color:#ffffff"
         offset="0.0000001"
         id="stop962" />
      <stop
         style="stop-opacity:0.06999313;stop-color:#ffffff"
         offset="0.5419694"
         id="stop964" />
      <stop
         style="stop-opacity:0;stop-color:#ffffff"
         offset="1"
         id="stop966" />
    </linearGradient>
    <mask
       maskUnits="userSpaceOnUse"
       x="0"
       y="0"
       width="1"
       height="1"
       id="mask970">
      <g
         id="g980">
        <g
           id="g978">
          <g
             id="g976">
            <g
               id="g974">
              <path
                 d="M -32768,32767 H 32767 V -32768 H -32768 Z"
                 style="fill:url(#linearGradient968);stroke:none"
                 id="path972" />
            </g>
          </g>
        </g>
      </g>
    </mask>
    <linearGradient
       x1="0"
       y1="0"
       x2="1"
       y2="0"
       gradientUnits="userSpaceOnUse"
       gradientTransform="matrix(77.268517,-224.40405,-224.40405,-77.268517,2589.0075,-23.41107)"
       spreadMethod="pad"
       id="linearGradient994">
      <stop
         style="stop-opacity:1;stop-color:#1d1d1b"
         offset="0"
         id="stop986" />
      <stop
         style="stop-opacity:1;stop-color:#1d1d1b"
         offset="0.0000001"
         id="stop988" />
      <stop
         style="stop-opacity:1;stop-color:#1d1d1b"
         offset="0.5419694"
         id="stop990" />
      <stop
         style="stop-opacity:1;stop-color:#5acc11"
         offset="1"
         id="stop992" />
    </linearGradient>
    <clipPath
       clipPathUnits="userSpaceOnUse"
       id="clipPath1004">
      <path
         d="M 0,2400 H 2400 V 0 H 0 Z"
         id="path1002" />
    </clipPath>
    <clipPath
       clipPathUnits="userSpaceOnUse"
       id="clipPath1196">
      <path
         d="m 1820.776,1836.905 c -4.804,-10.67 -0.048,-23.212 10.621,-28.016 v 0 c 10.669,-4.803 23.212,-0.046 28.016,10.623 v 0 c 4.803,10.67 0.047,23.212 -10.623,28.015 v 0 c -2.823,1.271 -5.776,1.872 -8.683,1.872 v 0 c -8.081,0 -15.8,-4.648 -19.331,-12.494"
         id="path1194" />
    </clipPath>
    <linearGradient
       x1="0"
       y1="0"
       x2="1"
       y2="0"
       gradientUnits="userSpaceOnUse"
       gradientTransform="matrix(29.969524,-29.969524,-29.969524,-29.969524,1825.1091,1843.193)"
       spreadMethod="pad"
       id="linearGradient1212">
      <stop
         style="stop-opacity:0.25999847;stop-color:#ffffff"
         offset="0"
         id="stop1206" />
      <stop
         style="stop-opacity:0.25999847;stop-color:#ffffff"
         offset="0.54196935"
         id="stop1208" />
      <stop
         style="stop-opacity:0;stop-color:#ffffff"
         offset="1"
         id="stop1210" />
    </linearGradient>
    <mask
       maskUnits="userSpaceOnUse"
       x="0"
       y="0"
       width="1"
       height="1"
       id="mask1214">
      <g
         id="g1224">
        <g
           id="g1222">
          <g
             id="g1220">
            <g
               id="g1218">
              <path
                 d="M -32768,32767 H 32767 V -32768 H -32768 Z"
                 style="fill:url(#linearGradient1212);stroke:none"
                 id="path1216" />
            </g>
          </g>
        </g>
      </g>
    </mask>
    <linearGradient
       x1="0"
       y1="0"
       x2="1"
       y2="0"
       gradientUnits="userSpaceOnUse"
       gradientTransform="matrix(29.969524,-29.969524,-29.969524,-29.969524,2559.0841,656.03713)"
       spreadMethod="pad"
       id="linearGradient1236">
      <stop
         style="stop-opacity:1;stop-color:#1d1d1b"
         offset="0"
         id="stop1230" />
      <stop
         style="stop-opacity:1;stop-color:#1d1d1b"
         offset="0.54196935"
         id="stop1232" />
      <stop
         style="stop-opacity:1;stop-color:#5acc11"
         offset="1"
         id="stop1234" />
    </linearGradient>
    <clipPath
       clipPathUnits="userSpaceOnUse"
       id="clipPath1246">
      <path
         d="m 1963.423,1918.618 c -1.913,-16.767 10.129,-31.91 26.896,-33.824 v 0 c 16.768,-1.913 31.912,10.129 33.824,26.896 v 0 c 1.914,16.768 -10.127,31.911 -26.895,33.825 v 0 c -1.177,0.134 -2.346,0.199 -3.503,0.199 v 0 c -15.325,0 -28.542,-11.505 -30.322,-27.096"
         id="path1244" />
    </clipPath>
    <linearGradient
       x1="0"
       y1="0"
       x2="1"
       y2="0"
       gradientUnits="userSpaceOnUse"
       gradientTransform="matrix(43.216148,-43.216148,-43.216148,-43.216148,1972.1755,1936.7626)"
       spreadMethod="pad"
       id="linearGradient1262">
      <stop
         style="stop-opacity:0.25999847;stop-color:#ffffff"
         offset="0"
         id="stop1256" />
      <stop
         style="stop-opacity:0.25999847;stop-color:#ffffff"
         offset="0.54196935"
         id="stop1258" />
      <stop
         style="stop-opacity:0;stop-color:#ffffff"
         offset="1"
         id="stop1260" />
    </linearGradient>
    <mask
       maskUnits="userSpaceOnUse"
       x="0"
       y="0"
       width="1"
       height="1"
       id="mask1264">
      <g
         id="g1274">
        <g
           id="g1272">
          <g
             id="g1270">
            <g
               id="g1268">
              <path
                 d="M -32768,32767 H 32767 V -32768 H -32768 Z"
                 style="fill:url(#linearGradient1262);stroke:none"
                 id="path1266" />
            </g>
          </g>
        </g>
      </g>
    </mask>
    <linearGradient
       x1="0"
       y1="0"
       x2="1"
       y2="0"
       gradientUnits="userSpaceOnUse"
       gradientTransform="matrix(43.216148,-43.216148,-43.216148,-43.216148,2706.1505,749.60673)"
       spreadMethod="pad"
       id="linearGradient1286">
      <stop
         style="stop-opacity:1;stop-color:#1d1d1b"
         offset="0"
         id="stop1280" />
      <stop
         style="stop-opacity:1;stop-color:#1d1d1b"
         offset="0.54196935"
         id="stop1282" />
      <stop
         style="stop-opacity:1;stop-color:#5acc11"
         offset="1"
         id="stop1284" />
    </linearGradient>
    <clipPath
       clipPathUnits="userSpaceOnUse"
       id="clipPath1296">
      <path
         d="M 0,2400 H 2400 V 0 H 0 Z"
         id="path1294" />
    </clipPath>
    <clipPath
       clipPathUnits="userSpaceOnUse"
       id="clipPath1332">
      <path
         d="m 606,592 c 31.174,-59.652 28.417,-130.224 -8,-181 v 0 C 550.975,345.434 454.787,322.584 373,364 v 0 h -2 c -1.666,-1.667 -3.334,-3.333 -5,-5 v 0 c 41,-38.667 82,-77.333 123,-116 v 0 c 23.672,2.724 95.585,14.095 157,74 v 0 c 77.835,75.921 80.44,172.867 80.57,191.916 v 0 c -32.441,32.443 -64.884,64.884 -97.326,97.327 v 0 C 621.496,601.496 613.748,596.748 606,592"
         id="path1330" />
    </clipPath>
    <linearGradient
       x1="0"
       y1="0"
       x2="1"
       y2="0"
       gradientUnits="userSpaceOnUse"
       gradientTransform="matrix(161.01434,-161.01434,-161.01434,-161.01434,493.62177,486.62177)"
       spreadMethod="pad"
       id="linearGradient1348">
      <stop
         style="stop-opacity:0.17999542;stop-color:#ffffff"
         offset="0"
         id="stop1342" />
      <stop
         style="stop-opacity:0.17999542;stop-color:#ffffff"
         offset="0.79908746"
         id="stop1344" />
      <stop
         style="stop-opacity:0;stop-color:#ffffff"
         offset="1"
         id="stop1346" />
    </linearGradient>
    <mask
       maskUnits="userSpaceOnUse"
       x="0"
       y="0"
       width="1"
       height="1"
       id="mask1350">
      <g
         id="g1360">
        <g
           id="g1358">
          <g
             id="g1356">
            <g
               id="g1354">
              <path
                 d="M -32768,32767 H 32767 V -32768 H -32768 Z"
                 style="fill:url(#linearGradient1348);stroke:none"
                 id="path1352" />
            </g>
          </g>
        </g>
      </g>
    </mask>
    <linearGradient
       x1="0"
       y1="0"
       x2="1"
       y2="0"
       gradientUnits="userSpaceOnUse"
       gradientTransform="matrix(161.01434,-161.01434,-161.01434,-161.01434,-73.531768,-364.79614)"
       spreadMethod="pad"
       id="linearGradient1372">
      <stop
         style="stop-opacity:1;stop-color:#1d1d1b"
         offset="0"
         id="stop1366" />
      <stop
         style="stop-opacity:1;stop-color:#1d1d1b"
         offset="0.79908746"
         id="stop1368" />
      <stop
         style="stop-opacity:1;stop-color:#5acc11"
         offset="1"
         id="stop1370" />
    </linearGradient>
    <clipPath
       clipPathUnits="userSpaceOnUse"
       id="clipPath1382">
      <path
         d="M 0,2400 H 2400 V 0 H 0 Z"
         id="path1380" />
    </clipPath>
    <clipPath
       clipPathUnits="userSpaceOnUse"
       id="clipPath1406">
      <path
         d="m 1330,591 c 31.173,-59.652 28.417,-130.224 -8,-181 v 0 c -47.024,-65.566 -143.213,-88.416 -225,-47 v 0 h -2 c -1.667,-1.667 -3.333,-3.333 -5,-5 v 0 c 41,-38.667 82,-77.333 123,-116 v 0 c 23.671,2.724 95.585,14.095 157,74 v 0 c 77.834,75.921 80.44,172.867 80.57,191.916 v 0 c -32.442,32.443 -64.884,64.884 -97.327,97.327 v 0 C 1345.496,600.496 1337.748,595.748 1330,591"
         id="path1404" />
    </clipPath>
    <linearGradient
       x1="0"
       y1="0"
       x2="1"
       y2="0"
       gradientUnits="userSpaceOnUse"
       gradientTransform="matrix(161.01434,-161.01434,-161.01434,-161.01434,1217.6218,485.62177)"
       spreadMethod="pad"
       id="linearGradient1422">
      <stop
         style="stop-opacity:0.17999542;stop-color:#ffffff"
         offset="0"
         id="stop1416" />
      <stop
         style="stop-opacity:0.17999542;stop-color:#ffffff"
         offset="0.79908746"
         id="stop1418" />
      <stop
         style="stop-opacity:0;stop-color:#ffffff"
         offset="1"
         id="stop1420" />
    </linearGradient>
    <mask
       maskUnits="userSpaceOnUse"
       x="0"
       y="0"
       width="1"
       height="1"
       id="mask1424">
      <g
         id="g1434">
        <g
           id="g1432">
          <g
             id="g1430">
            <g
               id="g1428">
              <path
                 d="M -32768,32767 H 32767 V -32768 H -32768 Z"
                 style="fill:url(#linearGradient1422);stroke:none"
                 id="path1426" />
            </g>
          </g>
        </g>
      </g>
    </mask>
    <linearGradient
       x1="0"
       y1="0"
       x2="1"
       y2="0"
       gradientUnits="userSpaceOnUse"
       gradientTransform="matrix(161.01434,-161.01434,-161.01434,-161.01434,1951.5968,-701.5341)"
       spreadMethod="pad"
       id="linearGradient1446">
      <stop
         style="stop-opacity:1;stop-color:#1d1d1b"
         offset="0"
         id="stop1440" />
      <stop
         style="stop-opacity:1;stop-color:#1d1d1b"
         offset="0.79908746"
         id="stop1442" />
      <stop
         style="stop-opacity:1;stop-color:#5acc11"
         offset="1"
         id="stop1444" />
    </linearGradient>
    <clipPath
       clipPathUnits="userSpaceOnUse"
       id="clipPath1456">
      <path
         d="M 0,2400 H 2400 V 0 H 0 Z"
         id="path1454" />
    </clipPath>
  </defs>
  <g
     inkscape:label="Layer 1"
     inkscape:groupmode="layer"
     id="layer1"
     transform="translate(591.4624,-173.91156)">
    <g
       id="g210"
       transform="matrix(0.35277777,0,0,-0.35277777,-527.62447,154.43271)" />
    <g
       id="g272"
       transform="matrix(0.35277777,0,0,-0.35277777,-527.62447,154.43271)" />
    <g
       id="g334"
       transform="matrix(0.35277777,0,0,-0.35277777,-527.62447,154.43271)" />
    <g
       id="g396"
       transform="matrix(0.35277777,0,0,-0.35277777,-527.62447,154.43271)" />
    <g
       id="g446"
       transform="matrix(0.35277777,0,0,-0.35277777,-527.62447,154.43271)" />
    <g
       id="g496"
       transform="matrix(0.35277777,0,0,-0.35277777,-527.62447,154.43271)" />
    <g
       id="g546"
       transform="matrix(0.35277777,0,0,-0.35277777,-527.62447,154.43271)" />
    <path
       d="m -403.78463,267.75044 c 0,51.82588 -42.01301,93.83889 -93.83889,93.83889 -51.82587,0 -93.83888,-42.01301 -93.83888,-93.83889 0,-51.82588 42.01301,-93.83888 93.83888,-93.83888 51.82588,0 93.83889,42.013 93.83889,93.83888"
       style="fill:#5acc11;fill-opacity:1;fill-rule:nonzero;stroke:none;stroke-width:0.352778"
       id="path596" />
    <g
       id="g640"
       transform="matrix(0.35277777,0,0,-0.35277777,-527.62447,154.43271)" />
    <g
       id="g854"
       transform="matrix(0.35277777,0,0,-0.35277777,-527.62447,154.43271)" />
    <g
       id="g904"
       transform="matrix(0.35277777,0,0,-0.35277777,-527.62447,154.43271)" />
    <g
       id="g954"
       transform="matrix(0.35277777,0,0,-0.35277777,-527.62447,154.43271)" />
    <g
       id="g1200"
       transform="matrix(0.35277777,0,0,-0.35277777,-527.62447,154.43271)" />
    <g
       id="g1250"
       transform="matrix(0.35277777,0,0,-0.35277777,-527.62447,154.43271)" />
    <path
       d="m -453.6758,267.84689 c 0,24.34061 -19.73227,44.07288 -44.07288,44.07288 -24.34096,0 -44.07288,-19.73227 -44.07288,-44.07288 0,-24.34096 19.73192,-44.07323 44.07288,-44.07323 24.34061,0 44.07288,19.73227 44.07288,44.07323"
       style="fill:#ffffff;fill-opacity:1;fill-rule:nonzero;stroke:none;stroke-width:0.352778"
       id="path1308" />
    <path
       d="m -538.52196,249.69919 c 3.73168,3.98074 5.22146,7.58049 5.89209,10.1346 0.75565,2.87831 0.5394,4.69124 2.1209,5.89209 2.304,1.74872 4.69689,-0.6297 8.24901,0.94263 3.24449,1.43615 4.06752,4.66795 5.65644,4.24215 0.96837,-0.25929 1.37477,-1.651 1.64994,-2.59257 1.00153,-3.43005 -0.95674,-4.92089 -0.23566,-7.77769 0.42192,-1.67287 1.26753,-1.84926 3.77084,-4.94912 1.91982,-2.37737 3.22086,-4.50109 4.00685,-5.89209 -0.36689,-2.02636 -1.19874,-4.52226 -3.29988,-5.89209 -1.70462,-1.11161 -2.96122,-0.64453 -4.0065,-1.8856 -1.32679,-1.5748 -0.35983,-3.58034 -0.47131,-6.83472 -0.061,-1.77659 -0.45896,-4.37762 -2.12125,-7.54203 -3.13478,1.48519 -7.89058,4.20158 -12.49116,8.95632 -4.76461,4.92336 -7.354,9.9568 -8.72031,13.19812"
       style="fill:#5acc11;fill-opacity:1;fill-rule:nonzero;stroke:none;stroke-width:0.352778"
       id="path1312" />
    <path
       d="m -536.63665,292.35807 c 1.58997,-4.44148 9.00183,-7.55192 14.37675,-6.12775 3.68477,0.97613 5.63986,3.87879 8.95597,3.06352 2.28953,-0.56268 2.25566,-2.16712 4.47781,-2.59221 3.4036,-0.65123 8.01158,2.24472 9.19198,5.89209 0.72601,2.24332 0.0392,4.41431 1.17828,4.94912 0.9592,0.45085 1.90817,-0.87171 2.82821,-0.47131 1.31481,0.57256 0.61349,3.81141 0.94263,7.30603 0.55844,5.9249 3.57611,7.25911 2.82857,9.19197 -1.77941,4.59882 -22.06308,5.31213 -35.58858,-5.65643 -1.68521,-1.36667 -11.43952,-9.27665 -9.19162,-15.55503"
       style="fill:#5acc11;fill-opacity:1;fill-rule:nonzero;stroke:none;stroke-width:0.352778"
       id="path1316" />
    <path
       d="m -488.3214,222.59559 c -4.02131,3.53095 2.3562,11.85475 0,29.93178 -0.92886,7.12753 -2.68534,11.70341 -6.12775,13.19848 -2.42006,1.05092 -5.01579,0.29351 -6.12775,2.1209 -0.96626,1.58856 -0.21766,4.1536 1.17863,5.65679 1.67181,1.79987 4.07882,1.86761 4.71346,1.88489 2.5961,0.073 3.70735,-1.17369 10.84157,-5.18477 2.71145,-1.52471 2.61938,-1.38289 4.24215,-2.35691 4.16701,-2.50049 6.25087,-3.75109 7.7777,-5.8921 0.55174,-0.77328 2.42675,-3.40254 2.3569,-6.83471 -0.10512,-5.14139 -4.47639,-7.26087 -3.77119,-11.78419 0.29245,-1.87678 1.41429,-3.29953 1.41429,-3.29953 0.99941,-1.37901 1.89159,-1.64924 2.82821,-2.59256 2.02001,-2.03483 2.13043,-5.06695 2.1209,-5.65644 -0.0945,-5.95489 -16.39393,-13.62816 -21.44712,-9.19163"
       style="fill:#5acc11;fill-opacity:1;fill-rule:nonzero;stroke:none;stroke-width:0.352778"
       id="path1320" />
    <path
       d="m -480.07247,280.1025 c -2.43593,-0.44204 -6.32531,-0.0572 -7.77734,2.3569 -1.24389,2.06728 -0.24588,4.86798 0.70697,7.54204 0.87348,2.45145 1.66088,2.93335 2.1209,5.42043 0.39864,2.15336 0.0459,3.07622 0.70732,3.53519 0.97684,0.67804 2.67158,-0.6918 6.3634,-2.82822 5.94043,-3.43747 7.0799,-3.08998 8.48466,-5.18513 1.37619,-2.05246 2.30152,-5.39785 0.94262,-7.07037 -1.12007,-1.37866 -2.79823,-0.39617 -7.07037,-1.88525 -2.7118,-0.94544 -2.64125,-1.55257 -4.47816,-1.88559"
       style="fill:#5acc11;fill-opacity:1;fill-rule:nonzero;stroke:none;stroke-width:0.352778"
       id="path1324" />
    <g
       id="g1336"
       transform="matrix(0.35277777,0,0,-0.35277777,-527.62447,154.43271)" />
    <g
       id="g1362"
       mask="url(#mask1350)"
       transform="matrix(0.35277777,0,0,-0.35277777,-660.07768,446.78516)">
      <g
         id="g1364">
        <path
           d="m 606,592 c 31.174,-59.652 28.417,-130.224 -8,-181 v 0 C 550.975,345.434 454.787,322.584 373,364 v 0 h -2 c -1.666,-1.667 -3.334,-3.333 -5,-5 v 0 c 41,-38.667 82,-77.333 123,-116 v 0 c 23.672,2.724 95.585,14.095 157,74 v 0 c 77.835,75.921 80.44,172.867 80.57,191.916 v 0 c -32.441,32.443 -64.884,64.884 -97.326,97.327 v 0 C 621.496,601.496 613.748,596.748 606,592"
           style="fill:url(#linearGradient1372);stroke:none"
           id="path1374" />
      </g>
    </g>
    <path
       d="m -497.60662,205.62158 c -34.2579,0 -62.1284,27.87086 -62.1284,62.12875 0,12.18953 3.53095,23.56873 9.62025,33.17276 l 4.12962,-4.12962 c -5.11599,-8.4903 -8.06309,-18.42841 -8.06309,-29.04314 0,-31.12205 25.31957,-56.44197 56.44162,-56.44197 31.12205,0 56.44197,25.31992 56.44197,56.44197 0,31.12241 -25.31992,56.44198 -56.44197,56.44198 -10.76254,0 -20.82976,-3.02895 -29.39732,-8.27793 l -4.12433,4.12432 c 9.67669,6.22547 21.18466,9.84074 33.52165,9.84074 34.2579,0 62.12875,-27.87086 62.12875,-62.12911 0,-34.25789 -27.87085,-62.12875 -62.12875,-62.12875"
       style="fill:#ffffff;fill-opacity:1;fill-rule:nonzero;stroke:none;stroke-width:0.352778"
       id="path1386" />
    <path
       d="m -439.60932,232.7848 -9.65094,9.65059 -23.60013,-23.60013 9.65094,-9.65059 z"
       style="fill:#5acc11;fill-opacity:1;fill-rule:nonzero;stroke:none;stroke-width:0.352778"
       id="path1390" />
    <path
       d="m -536.62493,311.58068 -4.42348,-19.6977 -14.84701,13.67966 z"
       style="fill:#ffffff;fill-opacity:1;fill-rule:nonzero;stroke:none;stroke-width:0.352778"
       id="path1394" />
    <path
       d="m -457.45095,227.048 4.42383,19.6977 14.84666,-13.67966 z"
       style="fill:#ffffff;fill-opacity:1;fill-rule:nonzero;stroke:none;stroke-width:0.352778"
       id="path1398" />
    <g
       id="g1410"
       transform="matrix(0.35277777,0,0,-0.35277777,-527.62447,154.43271)" />
  </g>
</svg>
